<svg xmlns="http://www.w3.org/2000/svg" width="229" height="136" viewBox="0 0 229 136"><g fill="none" fill-rule="evenodd"><path fill="#FFFFFE" d="M189.368 136c-.47 0-.93-.083-1.369-.245l-4.168-1.518c-1.312-.46-2.328-1.705-2.616-3.237l-.036-.19-.004-.06-.72-.258a6.758 6.758 0 0 1-2.702-1.787 6.687 6.687 0 0 1-3.196-.326l-2.054-.738a6.745 6.745 0 0 1-2.738-1.838 6.678 6.678 0 0 1-3.279-.317l-.618-.222a53.713 53.713 0 0 1-1.207 1.448c-1.443 1.7-3.884 3.72-5.852 5.295l-2.567 2.052-10.349-12.977 2.611-2.048c.754-.592 1.278-1.002 1.685-1.287l-12.971-3.892-4.298-1.274c-2.387.36-9.976 1.393-18.494 1.393-8.54 0-16.257-.994-18.645-1.334l-4.11 1.219-12.962 3.888c.408.285.932.695 1.686 1.287l2.61 2.048-10.195 12.786-2.516-1.71c-1.97-1.34-4.513-3.627-6.057-5.446-.319-.366-.759-.896-1.205-1.448l-.62.223a6.686 6.686 0 0 1-3.279.316 6.754 6.754 0 0 1-2.742 1.84l-2.04.734a6.705 6.705 0 0 1-3.203.326 6.753 6.753 0 0 1-2.703 1.788l-.719.257c-.137 1.555-1.21 2.981-2.693 3.502l-4.153 1.512a3.9 3.9 0 0 1-1.348.238 4.16 4.16 0 0 1-2.655-.983 4.494 4.494 0 0 1-.737-.751 34.498 34.498 0 0 1-1.527-2.175c-1.99-.253-3.863-1.182-5.326-2.628l-2.04-.096h-.507l-1.192-3.424-.343-.978-.69-2.043 1.87-1.7c.229-2.088 1.115-4.012 2.512-5.48a34.89 34.89 0 0 1-.166-2.671c-.011-.351.024-.725.106-1.087.297-1.438 1.291-2.61 2.619-3.075l4.168-1.504a3.76 3.76 0 0 1 1.29-.223c1.004 0 2.004.38 2.815 1.072l.073.062.413.396.564-.202a6.708 6.708 0 0 1 3.203-.327 6.779 6.779 0 0 1 2.7-1.786l2.048-.733a6.694 6.694 0 0 1 3.278-.316 6.75 6.75 0 0 1 2.74-1.84l.41-.147c.018-2.77.338-7.332 1.922-11.92l.428-1.24-21.725-6.365L0 51.652l45.55.07 7.032-23.5-5.107-10.91H77.04l1.677-9.257-2.491-7.7h76.52l-2.54 7.725 1.65 9.232h29.517l-5.107 10.91 7.006 23.5 45.627-.07-35.784 32.184L171.39 90.2l.428 1.24c1.528 4.413 1.856 9.093 1.894 11.911l.438.156a6.752 6.752 0 0 1 2.742 1.841 6.713 6.713 0 0 1 3.276.314l2.047.735a6.773 6.773 0 0 1 2.702 1.786 6.693 6.693 0 0 1 3.196.325l.572.204.412-.396.074-.062c.81-.692 1.81-1.072 2.813-1.072.45 0 .889.076 1.304.227l4.18 1.508c1.304.458 2.296 1.63 2.594 3.067.082.363.118.74.105 1.122a33.8 33.8 0 0 1-.165 2.637c1.397 1.467 2.283 3.391 2.513 5.478l1.884 1.713-.744 2.142-.308.876-1.187 3.415h-.508l-2.04.096c-1.463 1.446-3.337 2.375-5.326 2.628a34.092 34.092 0 0 1-1.51 2.154c-.231.297-.48.551-.754.772-.761.635-1.7.983-2.654.983"/><path fill="#1A1919" d="M199.277 122.72c.139-2.284-.912-4.46-2.758-5.608.209-1.37.333-2.742.365-4.115a1.124 1.124 0 0 0-.033-.314c-.056-.32-.234-.578-.495-.67l-4.194-1.512c-.256-.093-.614.048-.86.257l-1.458 1.4c-.01-.004-.316.308-.379.365a3.135 3.135 0 0 0-.403-.18l-2.05-.735a3.45 3.45 0 0 0-3.597.816c-.155-1.302-1.01-2.464-2.307-2.93l-2.045-.733a3.454 3.454 0 0 0-3.697.915c-.11-1.357-.976-2.588-2.322-3.07l-2.044-.731a3.39 3.39 0 0 0-.617-.156s.486-6.976-1.669-13.203l-8.86 1.92.246 1.887 1.95.919c.168 3.833-.731 6.772-.731 6.772l-4.283-1.83c.16-4.348-.162-8.051-.645-11.017l35.085-10.28 28.832-25.932-39.483.062-8.065-27.055 3.445-7.36h-27.099l-2.28-12.761 1.379-4.196H80.744l1.353 4.183-2.313 12.774h-27.14l3.445 7.36-8.095 27.055-39.404-.062 28.833 25.933 35.085 10.279c-.483 2.966-.804 6.67-.645 11.017l-4.282 1.83s-1.106-3.454-.732-6.772l1.95-.919.246-1.887-8.86-1.92c-2.274 6.584-1.669 13.203-1.669 13.203a3.398 3.398 0 0 0-.617.156l-2.045.731c-1.345.482-2.212 1.713-2.321 3.07a3.454 3.454 0 0 0-3.697-.915l-2.046.733c-1.296.466-2.15 1.628-2.306 2.93a3.45 3.45 0 0 0-3.597-.816l-2.05.735c-.14.05-.273.113-.403.18-.063-.057-.37-.369-.38-.365l-1.456-1.4c-.246-.21-.605-.35-.86-.257l-4.194 1.512c-.262.092-.439.35-.495.67a1.095 1.095 0 0 0-.033.314c.03 1.373.156 2.745.364 4.115-1.846 1.148-2.896 3.324-2.757 5.608l-1.306 1.188.03.087.305.867.421 1.214h.002l.03.085 1.747.082c1.312 1.863 3.474 2.875 5.616 2.577a31.379 31.379 0 0 0 2.268 3.428c.068.088.144.162.224.224.242.212.536.295.798.197l4.188-1.524c.256-.09.522-.436.509-.752l.094-2.093c.249-.031.498-.086.742-.174l2.049-.733c1.295-.464 2.148-1.627 2.302-2.93a3.447 3.447 0 0 0 3.598.816l2.047-.734c1.344-.482 2.213-1.712 2.321-3.069a3.451 3.451 0 0 0 3.697.913l2.045-.733c.273-.095.523-.228.753-.381l.031.043-.008.004c.528.732 1.92 2.466 2.6 3.242 1.308 1.546 3.646 3.67 5.414 4.871l6.229-7.812s-1.588-1.245-1.562-1.213l-2.167.62s-1.986-2.254-2.802-4.657l18.901-5.669 4.804-1.425s8.941 1.405 18.883 1.405c9.942 0 18.718-1.468 18.718-1.468l5.016 1.488 18.902 5.67c-.943 2.53-2.803 4.656-2.803 4.656l-2.167-.62c.027-.032-1.562 1.213-1.562 1.213l6.23 7.812c1.593-1.274 4.105-3.325 5.413-4.871.679-.776 2.071-2.51 2.6-3.242l-.008-.004.03-.043c.231.153.482.286.754.38l2.045.734a3.45 3.45 0 0 0 3.696-.913c.109 1.357.978 2.587 2.323 3.069l2.045.734c1.295.462 2.678.1 3.6-.816.153 1.303 1.006 2.466 2.301 2.93l2.05.733c.243.088.493.143.742.174 0 .256-.01.376-.038.156l.13 1.937c.062.322.255.662.51.752l4.188 1.524c.262.098.556.015.798-.197.08-.062.157-.136.225-.224a31.373 31.373 0 0 0 2.267-3.428c2.142.298 4.305-.714 5.615-2.577l1.749-.082.03-.085h.001l.422-1.214.305-.867h-.001l.03-.087-1.305-1.188"/><path fill="#F6C03C" d="M101.48 83.326c0-10.907 1.378-20.803 3.617-28.072-12.797 3.784-22.463 15.16-24.08 29.072 5.063 1.312 12.213 2.315 20.52 2.831a128.01 128.01 0 0 1-.057-3.83m22.117-28.12c2.248 7.273 3.632 17.188 3.632 28.12 0 1.296-.02 2.575-.058 3.84 8.37-.514 15.572-1.52 20.664-2.84-1.625-13.97-11.362-25.383-24.238-29.12m-.836 32.18c.074-1.948.113-3.946.113-5.983 0-11.959-1.314-22.587-3.351-29.327a18.71 18.71 0 0 0-5.097-.71 18.73 18.73 0 0 0-5.253.755c-2.03 6.743-3.338 17.35-3.338 29.282 0 2.036.04 4.03.112 5.977 2.738.109 5.572.166 8.48.166 2.855 0 5.641-.056 8.334-.16"/><path fill="#F6C03C" d="M114.732 91.293c-16.432 0-30.27-1.877-37.109-4.607-.858 3.931-1.578 8.034-1.3 12.3 7.039 3.62 21.045 6.115 38.126 6.115 17.045 0 31.024-2.483 38.081-6.091.23-4.1-.42-8.234-1.253-12.108-7.038 2.613-20.552 4.391-36.545 4.391m40.27 12.366c-.188.066-.388.132-.602.203a90.702 90.702 0 0 1-5.76 1.68l11.347 4.11.002.001s.685-1.66.993-3.45l-5.98-2.544m-87.295 2.545c.308 1.789.993 3.449.993 3.449l10.98-3.962c-2.922-.74-5.058-1.424-6.369-1.88l-5.604 2.393"/><path fill="#FFFFFE" d="M64.311 95.273l-2.51-.561c-.884 4.249-1.327 10.713 1.234 18.124 2.278 6.592 5.738 10.678 8.511 13.07l1.632-2.214c-2.194-2.505-4.901-6.5-6.963-12.467-2.223-6.434-2.3-12.099-1.904-15.952"/><path fill="#F6C03C" d="M36.376 112.054l-2.792.997c.05 2.238.833 5.732 2.219 9.747 1.23 3.556 2.469 6.311 3.711 8.196l2.78-1.02c-1.236-1.889-2.482-4.649-3.7-8.178-1.346-3.9-2.132-7.49-2.218-9.742m-3.798 6.955a3.592 3.592 0 0 0-1.608 2.256c-.39 1.67.111 3.093.408 3.593 0 0 .668-1.396 2.206-2.15 0 0-.556-1.567-.909-3.752 0 0-.036.017-.097.053"/><path fill="#FFFFFE" d="M166.889 94.712l-2.51.561c.253 2.46.309 5.66-.258 9.324a38.182 38.182 0 0 1-1.646 6.628c-.903 2.616-1.93 4.852-2.986 6.75-1.35 2.432-2.745 4.31-3.976 5.717l1.63 2.214c1.626-1.402 3.485-3.39 5.206-6.12 1.215-1.927 2.362-4.22 3.306-6.95a34.986 34.986 0 0 0 1.72-7.63 33.676 33.676 0 0 0-.486-10.494"/><path fill="#F6C03C" d="M192.314 112.054c-.085 2.252-.87 5.841-2.218 9.742-1.218 3.53-2.463 6.29-3.7 8.177l2.78 1.02c1.242-1.884 2.483-4.639 3.712-8.195 1.385-4.015 2.168-7.509 2.218-9.747l-2.792-.997m3.798 6.955c-.06-.036-.097-.053-.097-.053-.353 2.185-.909 3.752-.909 3.752 1.54.754 2.207 2.15 2.207 2.15.296-.5.798-1.923.407-3.593a3.586 3.586 0 0 0-1.608-2.256M169.229 68.53c-1.08 2.325-2.593 4.496-4.475 6.454l46.072-16.633-31.394-.047-.597.45-8.088 5.197a20.896 20.896 0 0 1-1.518 4.58m-109.744 0a20.882 20.882 0 0 1-1.521-4.595l-7.204-4.631-1.095-.573-30.56-.1 44.7 16.189c-1.809-1.915-3.27-4.03-4.32-6.29"/><path fill="#FFFFFE" d="M63.099 61.512c.287 1.178 1.015 2.639 1.63 3.733.018.03.034.062.051.093 1.33 2.335 3.092 4.467 5.214 6.332 2.046 1.8 4.427 3.35 7.074 4.601l.017-.041a53.698 53.698 0 0 1 2.215-4.645l.061-.114c.387-.713.8-1.428 1.238-2.134l.115-.186a34.808 34.808 0 0 1-3.91-1.621c-.413-.198-1.63-.84-2.971-1.652-5.446-3.435-9.343-8.294-10.501-13.945-.402.924-1.332 5.419-.322 9.191l.089.388m102.469-9.58c-1.586 7.738-8.3 13.993-17.107 17.13l.055.092c.074.12.142.244.215.365.346.56.673 1.119.978 1.672a42.894 42.894 0 0 1 2.27 4.82l.067.163c2.748-1.322 5.203-2.975 7.29-4.891 2.046-1.877 3.7-3.898 4.998-6.207 1.497-2.666 2.91-6.962 1.234-13.143"/><path fill="#F6C03C" d="M63.332 51.933c-2.355 3.42-3.163 9.037.307 16.32 3.47 7.283 12.125 11.391 12.125 11.391s.583-1.73 1.304-3.373c-6.299-2.924-10.36-7.76-12.141-10.682-4.093-6.714-1.595-13.656-1.595-13.656m102.216 0c2.354 3.42 3.162 9.037-.307 16.32-3.47 7.283-11.935 11.282-11.935 11.282s-.583-1.73-1.303-3.373c6.299-2.925 10.168-7.65 11.95-10.573 4.092-6.714 1.595-13.656 1.595-13.656"/><path fill="#FFFFFE" d="M61.072 50.465c-2.495 3.626-3.272 7.292-3.272 7.292-.002.007-4.855-2.865-4.855-2.865l8.212-30.126h6.554l2.567 14.068 2.362-11.677-.992-2.391h7.686l-6.282 35.707c-2.714-2.275-4.73-4.913-5.86-7.595l-2.748-15.87-3.372 13.457m110.03 7.3l4.805-2.855-2.919-10.968-.975 5.623-3.6 1.622c1.31 1.68 2.194 4.559 2.689 6.578m-19.407-21.501l4.261 24.115c2.683-2.273 4.671-4.901 5.78-7.568l-1.841-9.017-.411-1.759 6.602-.175 2.999 2.296-1.94-7.588h-8.723l-1.4-6.86h8.794l4.247 3.273-2.084-8.215h-18.315l2.031 11.498"/><path fill="#F6C03C" d="M102.3 7.963h-5.68l1.04 1.587-.505 5.558-4.426-7.145h-5.625l-1.955 12.765h5.012l.891-6.881 4.018 6.881h6.387l.843-12.765M110.883 18.982l3.21-2.912 3.048 4.658h6.81l-6.525-7.685 5.597-5.08h-6.55l-5.547 5.661.044-5.661h-4.166l-.545 12.765h4.61l.014-1.746M138.118 16.594h-6.408l-.624-6.573 1.001-2.058h-5.509l.859 12.765h16.244l-1.932-12.765h-5.645l1.195 2.035.819 6.596"/><path fill="#FFFFFE" d="M89.725 29.456h5.998L93.817 48.06c-3.26 1.374-6.888 4.246-6.888 4.246l2.796-22.85zm9.577 22.2l1.685-24.6-3.2-2.309H87.4l-3.108 2.307-4.084 26.712 4.601 8.648s6.064-7.585 14.492-10.759zm11.56-21.948h7.26l.019 5.143-7.382 2.452.103-7.595zm14.742 20.488l-5.98-10.588 3.666-1.504-.482-11.13-2.893-2.208h-13.752l-1.018 24.91s2.428-.718 5.36-.957l.138-5.786 3.807-1.401 3.897 7.187c3.802.24 7.257 1.477 7.257 1.477zm8.096-16.503l-.476-4.237h8.859l3.426 3.676-1.226-8.33h-13.347l-3.082 2.227.718 10.892 12.019 4.648 1.093 9.5s-4.356-3.08-9.377-5.142l-3.339-4.335.596 9.024s8.366 3.276 14.482 10.798l4.626-8.696-2.42-15.648-12.552-4.377M166.216 131.629h-1.064v-.422h2.576v.422h-1.063v2.888h-.449v-2.888M168.171 131.207h.668l1.05 2.506h.019l1.04-2.506h.668v3.31h-.449v-2.72h-.008l-1.116 2.72h-.299l-1.115-2.72h-.009v2.72h-.449v-3.31"/></g></svg>